<?xml version="1.0" encoding="utf-8"?>
<!-- Generator: Adobe Illustrator 16.0.0, SVG Export Plug-In . SVG Version: 6.00 Build 0)  -->
<!DOCTYPE svg PUBLIC "-//W3C//DTD SVG 1.1//EN" "http://www.w3.org/Graphics/SVG/1.1/DTD/svg11.dtd">
<svg version="1.1" id="Grid" xmlns="http://www.w3.org/2000/svg" xmlns:xlink="http://www.w3.org/1999/xlink" x="0px" y="0px"
	 width="1920px" height="968px" viewBox="0 0 1920 968" enable-background="new 0 0 1920 968" xml:space="preserve">
<linearGradient id="SVGID_1_" gradientUnits="userSpaceOnUse" x1="960" y1="968" x2="959.9999" y2="-6.103516e-005">
	<stop  offset="0" style="stop-color:#025768"/>
	<stop  offset="1" style="stop-color:#158D96"/>
</linearGradient>
<rect fill="url(#SVGID_1_)" width="1920" height="968"/>
<g>
	<defs>
		<rect id="SVGID_9_" width="1920" height="968"/>
	</defs>
	<clipPath id="SVGID_2_">
		<use xlink:href="#SVGID_9_"  overflow="visible"/>
	</clipPath>
	<g opacity="0.3" clip-path="url(#SVGID_2_)">
		<line fill="none" stroke="#FFFFFF" stroke-miterlimit="10" x1="1140" y1="1010.911" x2="960" y2="484"/>
		<line fill="none" stroke="#FFFFFF" stroke-miterlimit="10" x1="-111.938" y1="561.934" x2="521" y2="1022.456"/>
		<line fill="none" stroke="#FFFFFF" stroke-miterlimit="10" x1="876" y1="-46.286" x2="521" y2="1022.456"/>
		<line fill="none" stroke="#FFFFFF" stroke-miterlimit="10" x1="876" y1="-46.286" x2="946" y2="1045.436"/>
		<line fill="none" stroke="#FFFFFF" stroke-miterlimit="10" x1="960" y1="484" x2="2009.657" y2="390.204"/>
		<line fill="none" stroke="#FFFFFF" stroke-miterlimit="10" x1="-111.938" y1="561.934" x2="876" y2="-46.286"/>
		<line fill="none" stroke="#FFFFFF" stroke-miterlimit="10" x1="876" y1="-46.286" x2="2009.657" y2="390.204"/>
		<line fill="none" stroke="#FFFFFF" stroke-miterlimit="10" x1="-111.938" y1="561.934" x2="960" y2="484"/>
		<line fill="none" stroke="#FFFFFF" stroke-miterlimit="10" x1="1140" y1="1010.911" x2="2009.657" y2="390.204"/>
		<line fill="none" stroke="#FFFFFF" stroke-miterlimit="10" x1="2009.657" y1="390.204" x2="1243.807" y2="1045.436"/>
		<line fill="none" stroke="#FFFFFF" stroke-miterlimit="10" x1="-195.379" y1="230.435" x2="1961.94" y2="-5.07"/>
		<line fill="none" stroke="#FFFFFF" stroke-miterlimit="10" x1="-195.379" y1="230.435" x2="1975.132" y2="819.731"/>
		<line fill="none" stroke="#FFFFFF" stroke-miterlimit="10" x1="1342.525" y1="-157.071" x2="2009.657" y2="390.204"/>
		<line fill="none" stroke="#FFFFFF" stroke-miterlimit="10" x1="-267.119" y1="469.551" x2="1961.94" y2="-5.07"/>
		<line fill="none" stroke="#FFFFFF" stroke-miterlimit="10" x1="946" y1="1045.436" x2="-111.938" y2="561.934"/>
	</g>
</g>
</svg>
